<?xml version="1.0" standalone="no"?>
<svg xmlns="http://www.w3.org/2000/svg" height="1920pt" preserveAspectRatio="xMidYMid meet" viewBox="0 0 1811 1920" width="1811pt">
  <path d="m3871 19174c-33-17-67-45-93-78-39-49-101-169-114-221-3-14-10-25-14-25s-35 18-68 40c-134 90-270 114-368 65-97-48-155-149-194-339l-17-80-69-2c-276-9-443-263-486-743-7-76-16-134-22-136-6-1-72-17-146-35-316-75-565-216-670-380-39-60-70-156-70-214 0-42 2-45 99-127l99-83-62-74c-33-41-65-80-71-87-21-30 71-242 142-324 39-47 126-101 161-101 12 0 22-3 22-6s-32-40-71-82c-135-147-291-368-373-530-90-179-130-322-130-472-1-185 44-291 180-427 51-51 100-93 109-93 10 0 58 14 108 30 49 17 116 33 147 37 50 5 60 3 78-15 27-27 17-65-33-137-52-74-65-87-120-125-292-198-693-558-937-840-425-491-696-1006-806-1530-39-183-47-278-46-530 1-241 2-247 32-361 76-284 206-584 311-718 28-36 28-37 34-221 14-495 195-976 527-1402 88-113 312-336 440-438 107-85 328-236 417-284l49-27 18-92c101-501 423-1014 836-1334 181-140 439-282 655-361 176-64 464-137 605-154 20-2 34-21 76-100 112-209 333-530 513-742 304-361 663-675 1036-909 139-87 438-244 546-286 56-22 57-23 97-110 84-180 122-344 122-527 0-196-48-376-152-574-33-63-76-153-95-200-35-87-144-348-283-680-42-102-92-223-111-269-32-80-37-87-94-123-104-68-282-148-449-203-261-86-440-121-776-150-500-44-882-152-1042-295-105-93-126-192-66-310 65-130 204-234 394-293 262-82 655-75 1102 21 91 20 135 26 137 18 2-6 9-81 15-166s15-158 18-162c4-3 43-16 87-28 99-27 332-38 416-21 179 37 328 174 379 348 12 38 18 44 79 71 36 17 183 86 326 154l260 125 350 32c525 49 1123 108 1369 137l218 25 74 50c253 170 474 417 532 591 26 82 36 178 24 240l-9 48 80 42c98 53 209 153 244 221 31 63 34 145 6 208-29 64-111 148-212 218-48 33-111 85-139 116-169 185-328 533-431 943-71 285-141 754-141 949 0 197-35 412-92 571-56 155-172 297-290 357-49 24-50 26-18 20 441-74 817-100 1130-76 340 26 554 76 778 181 381 181 582 470 624 900 9 97 6 217-19 770-17 360-30 656-28 658 1 1 33-5 71-14s114-17 169-18c122-1 182 21 216 79l22 36 30-53c95-167 326-294 601-328 111-14 397-8 508 10l68 12 72-75c188-192 339-191 450 1l25 43 37-67c109-198 261-375 365-427 101-50 203-29 277 56 20 23 56 83 80 133 42 85 53 131 172 663 70 314 130 571 133 571s24-46 47-102c22-57 89-218 147-358 59-140 147-354 197-475 128-307 195-414 302-475 63-37 132-40 191-10 22 11 40 20 41 20s5-42 9-92c4-51 16-147 26-213 91-556 308-843 624-823l77 5 68-102c213-318 531-640 782-794 236-143 418-200 646-201 288-1 534 110 809 365 104 97 126 135 187 320 94 285 108 516 36 628-78 124-271 117-560-18-130-61-470-198-477-192-2 3-33 112-69 243-201 742-520 1688-829 2454-677 1681-1472 3023-2295 3874-655 678-1344 1073-2060 1183-111 17-222 19-725 17-313-1-431-12-615-59-478-121-939-389-1409-819-348-318-739-802-1046-1295-117-188-263-367-436-536-217-210-389-324-600-397-88-30-103-32-229-33-148 0-187 9-311 71-77 38-144 87-216 157-45 43-53 57-53 87 0 80-218 1010-335 1430-131 471-241 820-350 1109-102 271-115 303-209 496-104 213-202 361-299 452l-74 69 13 84c64 409 106 866 108 1180 1 276-8 366-50 480-13 36-20 67-16 71 4 3 66 44 137 92 304 201 588 466 734 687 131 198 176 341 168 530-4 104-9 128-49 241-52 149-94 213-169 253-46 26-58 28-123 24-117-9-147-26-218-130-33-49-62-87-64-85-2 1 7 36 20 77 101 319 96 622-13 766-33 44-113 115-129 114-4-1-74-87-157-191-82-105-152-192-155-194s-5 65-6 148c-2 279-67 436-207 498-63 28-164 30-247 6-50-15-59-22-88-69-17-29-36-60-41-68-8-11-23-2-75 48-77 74-170 122-237 122-29 0-64-9-98-26zm3731-15309c93-140 203-360 248-495 103-315 89-633-39-876-17-32-31-66-31-75 0-8-18-53-41-99-32-66-57-100-122-165-165-165-360-236-686-252-114-5-133-4-129 8 4 8 51 111 106 229 258 556 446 1117 541 1610 16 85 32 179 36 208 9 68 13 64 117-93z" transform="matrix(.1 0 0 -.1 0 1920)" fill="#F44545" stroke="none" stroke-width="2" vector-effect="non-scaling-stroke"/>
</svg>
